<?xml version="1.0" encoding="utf-8"?>
<!-- Generator: Adobe Illustrator 22.1.0, SVG Export Plug-In . SVG Version: 6.00 Build 0)  -->
<svg version="1.1" id="Layer_1" xmlns="http://www.w3.org/2000/svg" xmlns:xlink="http://www.w3.org/1999/xlink" x="0px" y="0px"
	 viewBox="0 0 88.5 16.1" style="enable-background:new 0 0 88.5 16.1;" xml:space="preserve">
<style type="text/css">
	.st0{fill:#F5F8FF;}
</style>
<g>
	<polygon class="st0" points="14.8,0.1 10.6,0.1 5.8,6.6 3.3,10 3.3,0.4 0,0.4 0,15.8 3.3,15.8 3.3,15.8 3.3,15.8 6.3,11.3 
		10.6,15.6 15.3,15.6 8.3,8.6 	"/>
	<rect x="37.5" y="0.3" class="st0" width="3.3" height="15.5"/>
	<path class="st0" d="M29.3,1.7C27.9,0.6,26.1,0,24.1,0c-4.7,0-8,3.3-8,8.1c0,4.8,3.3,8.1,8,8.1c2,0,3.8-0.6,5.2-1.7v1.4h3.3V0.3
		h-3.3V1.7z M24.1,13.3c-2.8,0-4.6-2.1-4.6-5.2c0-3.2,1.8-5.2,4.6-5.2c2.8,0,4.6,2,4.6,5.2C28.7,11.2,26.9,13.3,24.1,13.3z"/>
	<path class="st0" d="M64.6,0c-4.7,0-8,3.3-8,8.1c0,4.8,3.3,8.1,8,8.1c4.7,0,8-3.3,8-8.1C72.6,3.3,69.3,0,64.6,0z M64.6,13.3
		c-2.8,0-4.6-2.1-4.6-5.2c0-3.2,1.8-5.2,4.6-5.2c2.8,0,4.6,2,4.6,5.2C69.2,11.2,67.4,13.3,64.6,13.3z"/>
	<path class="st0" d="M49.3,1.4v-1H46v15.5h3.3V7.5c0.2-2.8,1.9-4.6,4.4-4.6c0.4,0,0.9,0.1,1.2,0.2V0.2c-0.4-0.1-0.8-0.1-1.2-0.1
		C52,0.1,50.6,0.5,49.3,1.4z"/>
	<path class="st0" d="M84.3,7l-3.1-0.5c-1.7-0.3-2.5-0.8-2.5-1.9c0-1.3,1.2-2,3-2c1.9,0,3.3,0.9,3.3,2.5h3.3c0-3.1-2.8-4.9-6.6-4.9
		c-3.5,0-6.3,1.8-6.3,4.6c0,2.2,1.2,3.8,4.2,4.3l3.1,0.5c1.8,0.3,2.4,0.9,2.4,2.1c0,1.4-1.2,2.1-3.2,2.1c-2,0-3.5-0.9-3.5-2.5H75
		c0.1,3,2.8,5,6.9,5c3.6,0,6.6-1.7,6.6-4.9C88.5,8.9,87.2,7.5,84.3,7z"/>
</g>
</svg>
